# xmcd CD database file
#
# Track frame offsets:
#	150
#	25413
#	53010
#	94752
#	105275
#	132653
#	154180
#	176420
#	200278
#	221635
#
# Disc length: 3295 seconds
#
# Revision: 2
# Processed by: cddbd v1.5.2PL0 Copyright (c) Steve Scherf et al.
# Submitted via: CDex 1.70beta2
#
DISCID=830cdd0a
DTITLE=SPECIAL OTHERS - Good morning
DYEAR=2006
DGENRE=Crossover
TTITLE0=AIMS
TTITLE1=Good morning
TTITLE2=Circle
TTITLE3=Yagi&Ryota
TTITLE4=Around The World
TTITLE5=Session
TTITLE6=KOYA
TTITLE7=Comboy
TTITLE8=KHN
TTITLE9=Door Of The Cosmos(The Stars Are Singing Too)
EXTD=YEAR: 2006
EXTT0=
EXTT1=
EXTT2=
EXTT3=
EXTT4=
EXTT5=
EXTT6=
EXTT7=
EXTT8=
EXTT9=
PLAYORDER=
